<svg width="40" height="40" viewBox="0 0 40 40" fill="none" xmlns="http://www.w3.org/2000/svg">
<rect width="40" height="40" rx="8" fill="#ECF2FE"/>
<g clip-path="url(#clip0_166_109687)">
<path d="M26.923 20.2695H13.0769L12.2461 23.9618H27.7538L26.923 20.2695Z" fill="#367AFF"/>
<path d="M29.9231 13.1154H10.0769C8.93169 13.1154 8 14.0471 8 15.1923V21.8846C8 23.0298 8.93169 23.9615 10.0769 23.9615H10.8269L11.8477 19.425C11.9188 19.109 12.1993 18.8846 12.5231 18.8846H27.4769C27.8008 18.8846 28.0813 19.109 28.1524 19.425L29.1731 23.9615H29.9231C31.0683 23.9615 32 23.0299 32 21.8846V15.1923C32 14.0471 31.0683 13.1154 29.9231 13.1154ZM23.6923 17.9615H22.7692C22.3869 17.9615 22.0769 17.6516 22.0769 17.2692C22.0769 16.8869 22.3869 16.5769 22.7692 16.5769H23.6923C24.0747 16.5769 24.3846 16.8869 24.3846 17.2692C24.3846 17.6516 24.0747 17.9615 23.6923 17.9615ZM26.9231 17.9615H26C25.6176 17.9615 25.3077 17.6516 25.3077 17.2692C25.3077 16.8869 25.6177 16.5769 26 16.5769H26.9231C27.3054 16.5769 27.6154 16.8869 27.6154 17.2692C27.6154 17.6516 27.3054 17.9615 26.9231 17.9615Z" fill="#367AFF"/>
<path d="M20.4615 27.1152C20.4615 26.9224 20.4975 26.8625 20.5936 26.7023C20.7248 26.4837 20.923 26.1533 20.923 25.5769C20.923 25.1946 20.613 24.8846 20.2307 24.8846C19.8484 24.8846 19.5384 25.1946 19.5384 25.5769C19.5384 25.7697 19.5025 25.8297 19.4063 25.9899C19.2751 26.2085 19.0769 26.5389 19.0769 27.1152C19.0769 27.6916 19.2751 28.022 19.4063 28.2407C19.5024 28.401 19.5384 28.4609 19.5384 28.6538C19.5384 28.8466 19.5025 28.9067 19.4063 29.0668C19.2751 29.2855 19.0769 29.6159 19.0769 30.1923C19.0769 30.5747 19.3869 30.8846 19.7692 30.8846C20.1515 30.8846 20.4615 30.5746 20.4615 30.1923C20.4615 29.9994 20.4975 29.9394 20.5936 29.7792C20.7248 29.5606 20.923 29.2302 20.923 28.6538C20.923 28.0773 20.7248 27.747 20.5936 27.5283C20.4975 27.3681 20.4615 27.3081 20.4615 27.1152Z" fill="#367AFF"/>
<path d="M16.7692 27.1152C16.7692 26.9224 16.8052 26.8625 16.9013 26.7023C17.0325 26.4837 17.2308 26.1533 17.2308 25.5769C17.2308 25.1946 16.9208 24.8846 16.5385 24.8846C16.1562 24.8846 15.8462 25.1946 15.8462 25.5769C15.8462 25.7697 15.8102 25.8297 15.7141 25.9899C15.5829 26.2085 15.3846 26.5389 15.3846 27.1152C15.3846 27.6916 15.5829 28.022 15.714 28.2407C15.8102 28.401 15.8462 28.4609 15.8462 28.6538C15.8462 28.8466 15.8102 28.9067 15.714 29.0668C15.5829 29.2855 15.3846 29.6159 15.3846 30.1923C15.3846 30.5747 15.6946 30.8846 16.0769 30.8846C16.4593 30.8846 16.7692 30.5746 16.7692 30.1923C16.7692 29.9994 16.8052 29.9394 16.9014 29.7792C17.0325 29.5606 17.2308 29.2302 17.2308 28.6538C17.2308 28.0773 17.0325 27.747 16.9014 27.5283C16.8052 27.3681 16.7692 27.3081 16.7692 27.1152Z" fill="#367AFF"/>
<path d="M24.1539 27.1152C24.1539 26.9224 24.1898 26.8625 24.286 26.7023C24.4172 26.4837 24.6154 26.1533 24.6154 25.5769C24.6154 25.1946 24.3054 24.8846 23.9231 24.8846C23.5408 24.8846 23.2308 25.1946 23.2308 25.5769C23.2308 25.7697 23.1949 25.8297 23.0987 25.9899C22.9675 26.2085 22.7693 26.5389 22.7693 27.1152C22.7693 27.6916 22.9675 28.022 23.0987 28.2407C23.1948 28.401 23.2308 28.4609 23.2308 28.6538C23.2308 28.8466 23.1949 28.9067 23.0987 29.0668C22.9675 29.2855 22.7693 29.6159 22.7693 30.1923C22.7693 30.5747 23.0793 30.8846 23.4616 30.8846C23.8439 30.8846 24.1539 30.5746 24.1539 30.1923C24.1539 29.9994 24.1898 29.9394 24.286 29.7792C24.4172 29.5606 24.6154 29.2302 24.6154 28.6538C24.6154 28.0773 24.4172 27.747 24.286 27.5283C24.1899 27.3681 24.1539 27.3081 24.1539 27.1152Z" fill="#367AFF"/>
</g>
<defs>
<clipPath id="clip0_166_109687">
<rect width="24" height="24" fill="white" transform="translate(8 10)"/>
</clipPath>
</defs>
</svg>
