<svg width="40" height="40" viewBox="0 0 40 40" fill="none" xmlns="http://www.w3.org/2000/svg">
<rect width="40" height="40" rx="8" fill="#FEF0EB"/>
<g clip-path="url(#clip0_166_109744)">
<path d="M31.027 22.9185H29.7297H26.8108V16.1077C26.8108 12.3522 23.7555 9.29688 20 9.29688C16.2445 9.29688 13.1892 12.3522 13.1892 16.1077V22.9185H10.2703H8.97298C8.43566 22.9185 8 23.3541 8 23.8915C8 24.4288 8.43566 24.8644 8.97298 24.8644H9.29731V29.7293C9.29731 30.2666 9.73297 30.7023 10.2703 30.7023H29.7297C30.2671 30.7023 30.7027 30.2666 30.7027 29.7293V24.8644H31.0271C31.5644 24.8644 32 24.4288 32 23.8915C32 23.3541 31.5644 22.9185 31.027 22.9185ZM13.1892 28.7563H11.2432V24.8644H13.1892L13.1892 28.7563ZM19.027 11.3407V16.1077H15.1351C15.1351 13.7583 16.8092 11.7927 19.027 11.3407ZM15.1351 18.0536H19.027V22.9185H15.1351V18.0536ZM17.0811 28.7563H15.1352V24.8644H17.0811V28.7563ZM20.973 28.7563H19.027V24.8644H20.973V28.7563ZM24.8649 28.7563H22.9189V24.8644H24.8649V28.7563ZM24.8649 22.9185H20.973V18.0536H24.8649V22.9185ZM20.973 16.1077V11.3407C23.1908 11.7927 24.8649 13.7583 24.8649 16.1077H20.973ZM28.7568 28.7563H26.8108V24.8644H28.7568V28.7563Z" fill="#F4845A"/>
</g>
<defs>
<clipPath id="clip0_166_109744">
<rect width="24" height="24" fill="white" transform="translate(8 8)"/>
</clipPath>
</defs>
</svg>
