<svg width="24" height="25" viewBox="0 0 24 25" fill="none" xmlns="http://www.w3.org/2000/svg">
<g clip-path="url(#clip0_180_11675)">
<path d="M13.3348 3.11865H11.9869C11.7475 3.11865 11.5527 3.31342 11.5527 3.55286V5.17028C11.5527 5.40967 11.7475 5.60443 11.9869 5.60443H13.3348C13.5742 5.60443 13.769 5.40967 13.769 5.17023V3.55286C13.769 3.31347 13.5742 3.11865 13.3348 3.11865ZM13.0832 4.9187H12.2384V3.80439H13.0832V4.9187Z" fill="#161616"/>
<path d="M16.0145 3.11865H14.6666C14.4272 3.11865 14.2324 3.31342 14.2324 3.55286V5.17028C14.2324 5.40967 14.4271 5.60443 14.6666 5.60443H16.0145C16.2539 5.60443 16.4486 5.40967 16.4486 5.17023V3.55286C16.4486 3.31347 16.2539 3.11865 16.0145 3.11865ZM15.7628 4.9187H14.9181V3.80439H15.7628V4.9187Z" fill="#161616"/>
<path d="M18.6942 3.11865H17.3463C17.1069 3.11865 16.9121 3.31342 16.9121 3.55286V5.17028C16.9121 5.40967 17.1069 5.60443 17.3463 5.60443H18.6942C18.9335 5.60443 19.1284 5.40967 19.1284 5.17023V3.55286C19.1284 3.31347 18.9336 3.11865 18.6942 3.11865ZM18.4426 4.9187H17.5978V3.80439H18.4426V4.9187Z" fill="#161616"/>
<path d="M13.3348 7.13623H11.9869C11.7475 7.13623 11.5527 7.331 11.5527 7.57043V9.18786C11.5527 9.42729 11.7475 9.62206 11.9869 9.62206H13.3348C13.5742 9.62206 13.769 9.42729 13.769 9.18786V7.57043C13.769 7.33104 13.5742 7.13623 13.3348 7.13623ZM13.0832 8.93637H12.2384V7.82206H13.0832V8.93637Z" fill="#161616"/>
<path d="M16.0145 7.13623H14.6666C14.4272 7.13623 14.2324 7.331 14.2324 7.57043V9.18786C14.2324 9.42729 14.4271 9.62206 14.6666 9.62206H16.0145C16.2539 9.62206 16.4486 9.42729 16.4486 9.18786V7.57043C16.4486 7.33104 16.2539 7.13623 16.0145 7.13623ZM15.7628 8.93637H14.9181V7.82206H15.7628V8.93637Z" fill="#161616"/>
<path d="M18.6942 7.13623H17.3463C17.1069 7.13623 16.9121 7.331 16.9121 7.57043V9.18786C16.9121 9.42729 17.1069 9.62206 17.3463 9.62206H18.6942C18.9335 9.62206 19.1284 9.42729 19.1284 9.18786V7.57043C19.1284 7.33104 18.9336 7.13623 18.6942 7.13623ZM18.4426 8.93637H17.5978V7.82206H18.4426V8.93637Z" fill="#161616"/>
<path d="M13.3346 11.1521H11.9867C11.7473 11.1521 11.5525 11.3469 11.5525 11.5863V13.2037C11.5525 13.4431 11.7472 13.6379 11.9867 13.6379H13.3346C13.574 13.6379 13.7688 13.4432 13.7688 13.2037V11.5863C13.7688 11.3469 13.574 11.1521 13.3346 11.1521ZM13.083 12.9522H12.2382V11.8379H13.083V12.9522Z" fill="#161616"/>
<path d="M16.0146 11.1521H14.6667C14.4273 11.1521 14.2325 11.3469 14.2325 11.5863V13.2037C14.2325 13.4431 14.4272 13.6379 14.6667 13.6379H16.0146C16.254 13.6379 16.4487 13.4432 16.4487 13.2037V11.5863C16.4487 11.3469 16.254 11.1521 16.0146 11.1521ZM15.7629 12.9522H14.9182V11.8379H15.7629V12.9522Z" fill="#161616"/>
<path d="M18.6942 11.1519H17.3463C17.1069 11.1519 16.9121 11.3466 16.9121 11.5861V13.2035C16.9121 13.4429 17.1069 13.6377 17.3463 13.6377H18.6942C18.9335 13.6377 19.1284 13.4429 19.1284 13.2035V11.5861C19.1284 11.3467 18.9336 11.1519 18.6942 11.1519ZM18.4426 12.9519H17.5978V11.8376H18.4426V12.9519Z" fill="#161616"/>
<path d="M18.6942 15.1675H17.3463C17.1069 15.1675 16.9121 15.3622 16.9121 15.6016V17.2191C16.9121 17.4585 17.1069 17.6533 17.3463 17.6533H18.6942C18.9335 17.6533 19.1284 17.4585 19.1284 17.2191V15.6016C19.1284 15.3622 18.9336 15.1675 18.6942 15.1675ZM18.4426 16.9675H17.5978V15.8532H18.4426V16.9675Z" fill="#161616"/>
<path d="M23.183 16.6966C22.7436 16.0509 21.8588 15.8799 21.211 16.3152L20.2683 16.9461V2.197H20.3366C20.5849 2.197 20.7868 1.99506 20.7868 1.74681V0.867668C20.7868 0.619418 20.5849 0.41748 20.3366 0.41748H18.1472C17.9578 0.41748 17.8044 0.570996 17.8044 0.760324C17.8044 0.949652 17.9579 1.10317 18.1472 1.10317H20.1011V1.51121H10.4744V1.10317H16.0002C16.1896 1.10317 16.343 0.949652 16.343 0.760324C16.343 0.570996 16.1895 0.41748 16.0001 0.41748H10.2388C9.99057 0.41748 9.78863 0.619418 9.78863 0.867668V1.74681C9.78863 1.99506 9.99057 2.197 10.2388 2.197H10.4129V6.60095H9.7089V5.75467C9.7089 5.46001 9.46918 5.22029 9.17457 5.22029H6.58576C6.2911 5.22029 6.05138 5.46001 6.05138 5.75467V6.6009H5.55873C5.25254 6.6009 5.00345 6.85 5.00345 7.15618V15.0192C4.85832 15.01 4.71277 15.005 4.5669 15.005H4.02652V14.8268C4.02652 14.1616 3.48535 13.6204 2.8201 13.6204H1.77765C1.11245 13.6204 0.571228 14.1616 0.571228 14.8268V19.7229C0.571228 19.9123 0.724744 20.0657 0.914072 20.0657C1.1034 20.0657 1.25692 19.9122 1.25692 19.7229V14.8268C1.25692 14.5397 1.49049 14.3062 1.7776 14.3062H2.82006C3.10717 14.3062 3.34074 14.5397 3.34074 14.8268V22.5414C3.34074 22.8284 3.10717 23.062 2.82006 23.062H1.77765C1.49054 23.062 1.25696 22.8284 1.25696 22.5414V21.8687C1.25696 21.6793 1.10345 21.5258 0.914119 21.5258C0.72479 21.5258 0.571275 21.6793 0.571275 21.8687V22.5414C0.571275 23.2066 1.11245 23.7477 1.7777 23.7477H2.82015C3.48535 23.7477 4.02657 23.2065 4.02657 22.5414V22.5218L8.77421 24.3197C8.78349 24.3232 8.79291 24.3263 8.80248 24.329C9.01107 24.3879 9.21957 24.4175 9.4262 24.4175C9.53851 24.4175 9.65026 24.4087 9.76116 24.3912C9.76126 24.3912 9.76149 24.3912 9.76182 24.3911L16.7697 23.381C16.7714 23.3807 16.7731 23.3805 16.7748 23.3802C17.3739 23.2845 17.939 23.0313 18.4091 22.6479C18.4134 22.6445 18.4176 22.6409 18.4216 22.6372L22.9511 18.5634C23.4849 18.0894 23.5846 17.2869 23.183 16.6966ZM11.0986 2.197H19.5826V17.4051L16.7299 19.3142L15.7734 19.2606L15.7491 19.0157C15.7312 18.8358 15.6909 18.6628 15.6309 18.4996C15.6109 18.4451 15.5887 18.3918 15.5645 18.3396C15.5281 18.2614 15.487 18.1858 15.4416 18.1133C15.3342 17.9418 15.2025 17.7874 15.0511 17.6544H16.0146C16.254 17.6544 16.4488 17.4597 16.4488 17.2202V15.6028C16.4488 15.3634 16.254 15.1687 16.0146 15.1687H14.6667C14.4273 15.1687 14.2326 15.3634 14.2326 15.6028V17.2126C14.1459 17.1887 14.057 17.1699 13.966 17.1571C13.9631 17.1566 13.9602 17.1563 13.9572 17.1559L13.7688 17.1342V15.6028C13.7688 15.3634 13.574 15.1686 13.3346 15.1686H11.9867C11.7473 15.1686 11.5525 15.3633 11.5525 15.6028V16.8791L11.0986 16.8269V2.197ZM14.9182 16.9687V15.8544H15.7629V16.9687H14.9182ZM13.083 15.8544V16.9687H12.3303L12.2382 16.9581V15.8544H13.083ZM6.73712 5.90603H9.02316V6.6009H6.73712V5.90603ZM5.68909 7.28664H10.4129V8.35886H6.54076C6.31909 8.35886 6.13876 8.53918 6.13876 8.76086V9.79609C6.13876 10.0178 6.31909 10.1981 6.54076 10.1981H10.4129V11.1627H6.54076C6.31909 11.1627 6.13876 11.343 6.13876 11.5647V12.5999C6.13876 12.8215 6.31909 13.0019 6.54076 13.0019H10.4129V13.9665H6.54076C6.31909 13.9665 6.13876 14.1468 6.13876 14.3685V15.187C6.08054 15.1735 6.02209 15.1608 5.9634 15.1487C5.93574 15.143 5.90809 15.1376 5.88034 15.1322C5.8479 15.1259 5.81532 15.12 5.78274 15.1142C5.75152 15.1086 5.7204 15.1026 5.68909 15.0974V7.28664ZM10.4129 9.04459V9.51236H6.82449V9.04459H10.4129ZM10.4129 11.8484V12.3161H6.82449V11.8484H10.4129ZM6.82449 15.12V14.6522H10.4129V15.12H6.82449ZM10.4129 15.8057V16.7479L10.3073 16.7357C10.0858 16.7042 9.86752 16.6608 9.6527 16.6064C9.23621 16.5009 8.83299 16.3529 8.44651 16.1629C8.39513 16.1377 8.34418 16.1115 8.29341 16.0847C8.21054 16.0411 8.12841 15.9958 8.04718 15.9482C7.98737 15.9132 7.92699 15.8796 7.86638 15.8465C7.85326 15.8393 7.84013 15.8322 7.82696 15.8252C7.81492 15.8187 7.80291 15.8121 7.79087 15.8057H10.4129ZM22.4941 18.0521L17.9694 22.1215C17.5948 22.4253 17.1454 22.6261 16.6691 22.7026L9.66123 23.7128C9.65968 23.713 9.65331 23.714 9.65181 23.7142C9.44213 23.7474 9.22374 23.7334 9.00249 23.6729L4.02652 21.7885V15.6908H4.56685C4.81548 15.6908 5.06312 15.7066 5.3087 15.7362C5.35857 15.7422 5.40826 15.7488 5.45785 15.756C5.46507 15.757 5.47224 15.7582 5.47942 15.7592C5.60471 15.7778 5.72888 15.8004 5.85202 15.8262C5.89032 15.8343 5.92867 15.8425 5.96682 15.8513C5.9859 15.8557 6.00488 15.8604 6.02391 15.8649C6.07365 15.8769 6.12329 15.8894 6.17274 15.9026C6.18165 15.905 6.1906 15.9073 6.19951 15.9098C6.58688 16.0154 6.96404 16.1586 7.32516 16.3377C7.33595 16.343 7.34668 16.3485 7.35741 16.3539C7.40335 16.377 7.44896 16.4008 7.49434 16.4251C7.50816 16.4325 7.52204 16.4397 7.53582 16.4472C7.59043 16.477 7.64476 16.5074 7.69852 16.5388C7.69932 16.5393 7.70012 16.5397 7.70091 16.5402C7.84665 16.6254 7.99477 16.705 8.1452 16.779C8.79695 17.0993 9.49126 17.3129 10.2155 17.4154C10.2185 17.4158 10.2214 17.4162 10.2243 17.4165L10.7166 17.4732L11.1174 17.5194L12.042 17.6258L12.2714 17.6522C12.2714 17.6522 12.2715 17.6522 12.2715 17.6522L13.874 17.8367C14.5126 17.929 15.0028 18.4412 15.0667 19.0836L15.0786 19.2031L8.65196 18.5768C8.46291 18.5583 8.29581 18.6963 8.27743 18.8848C8.2591 19.0733 8.39696 19.2409 8.58545 19.2593L15.3984 19.9233C15.4126 19.926 15.4272 19.9281 15.442 19.9289L16.806 20.0055C16.8124 20.0058 16.8188 20.006 16.8252 20.006C16.832 20.006 16.8386 20.0049 16.8454 20.0045C16.8532 20.004 16.8609 20.0037 16.8686 20.0027C16.8785 20.0015 16.8881 19.9993 16.8978 19.9972C16.9054 19.9956 16.9131 19.9943 16.9205 19.9921C16.9308 19.9891 16.9408 19.9851 16.9508 19.9811C16.9571 19.9786 16.9636 19.9766 16.9697 19.9738C16.9856 19.9664 17.0011 19.9578 17.0159 19.948L20.1161 17.8732L20.1162 17.8731L21.5929 16.8848C21.9292 16.6589 22.3882 16.7475 22.616 17.0824C22.8243 17.3885 22.7726 17.8048 22.4941 18.0521Z" fill="#161616"/>
</g>
<defs>
<clipPath id="clip0_180_11675">
<rect width="24" height="24" fill="white" transform="translate(0 0.41748)"/>
</clipPath>
</defs>
</svg>
