<svg width="60" height="60" viewBox="0 0 60 60" fill="none" xmlns="http://www.w3.org/2000/svg">
<rect width="60" height="60" rx="30" fill="#9875E9" fill-opacity="0.1"/>
<g clip-path="url(#clip0_336_6080)">
<path d="M35.3125 30.625C32.7236 30.625 30.625 32.7236 30.625 35.3125C30.625 37.9013 32.7236 40 35.3125 40C37.9014 40 40 37.9013 40 35.3125C40 32.7236 37.9014 30.625 35.3125 30.625ZM37.0703 35.8984H35.3125C34.9886 35.8984 34.7266 35.6364 34.7266 35.3125V33.5547C34.7266 33.2308 34.9886 32.9688 35.3125 32.9688C35.6364 32.9688 35.8984 33.2308 35.8984 33.5547V34.7266H37.0703C37.3942 34.7266 37.6562 34.9886 37.6562 35.3125C37.6562 35.6364 37.3942 35.8984 37.0703 35.8984Z" fill="#9875E9"/>
<path d="M34.1406 22.9297C34.1406 21.9604 33.3521 21.1719 32.3828 21.1719H31.2109V20.5859C31.2109 20.2621 30.9489 20 30.625 20C30.3011 20 30.0391 20.2621 30.0391 20.5859V21.1719H27.6953V20.5859C27.6953 20.2621 27.4332 20 27.1094 20C26.7855 20 26.5234 20.2621 26.5234 20.5859V21.1719H24.1797V20.5859C24.1797 20.2621 23.9176 20 23.5938 20C23.2699 20 23.0078 20.2621 23.0078 20.5859V21.1719H21.7578C20.7885 21.1719 20 21.9604 20 22.9297V23.5156H34.1406V22.9297Z" fill="#9875E9"/>
<path d="M34.1406 29.5716V24.6875H20V32.3828C20 33.3521 20.7885 34.1406 21.7578 34.1406H29.5716C30.0389 31.8484 31.8484 30.0389 34.1406 29.5716ZM30.0391 25.9375H31.2109C31.5348 25.9375 31.7969 26.1996 31.7969 26.5234C31.7969 26.8473 31.5348 27.1094 31.2109 27.1094H30.0391C29.7152 27.1094 29.4531 26.8473 29.4531 26.5234C29.4531 26.1996 29.7152 25.9375 30.0391 25.9375ZM24.1797 31.7969H23.0078C22.6839 31.7969 22.4219 31.5348 22.4219 31.2109C22.4219 30.8871 22.6839 30.625 23.0078 30.625H24.1797C24.5036 30.625 24.7656 30.8871 24.7656 31.2109C24.7656 31.5348 24.5036 31.7969 24.1797 31.7969ZM24.1797 29.4531H23.0078C22.6839 29.4531 22.4219 29.1911 22.4219 28.8672C22.4219 28.5433 22.6839 28.2812 23.0078 28.2812H24.1797C24.5036 28.2812 24.7656 28.5433 24.7656 28.8672C24.7656 29.1911 24.5036 29.4531 24.1797 29.4531ZM24.1797 27.1094H23.0078C22.6839 27.1094 22.4219 26.8473 22.4219 26.5234C22.4219 26.1996 22.6839 25.9375 23.0078 25.9375H24.1797C24.5036 25.9375 24.7656 26.1996 24.7656 26.5234C24.7656 26.8473 24.5036 27.1094 24.1797 27.1094ZM27.6953 31.7969H26.5234C26.1996 31.7969 25.9375 31.5348 25.9375 31.2109C25.9375 30.8871 26.1996 30.625 26.5234 30.625H27.6953C28.0192 30.625 28.2812 30.8871 28.2812 31.2109C28.2812 31.5348 28.0192 31.7969 27.6953 31.7969ZM27.6953 29.4531H26.5234C26.1996 29.4531 25.9375 29.1911 25.9375 28.8672C25.9375 28.5433 26.1996 28.2812 26.5234 28.2812H27.6953C28.0192 28.2812 28.2812 28.5433 28.2812 28.8672C28.2812 29.1911 28.0192 29.4531 27.6953 29.4531ZM27.6953 27.1094H26.5234C26.1996 27.1094 25.9375 26.8473 25.9375 26.5234C25.9375 26.1996 26.1996 25.9375 26.5234 25.9375H27.6953C28.0192 25.9375 28.2812 26.1996 28.2812 26.5234C28.2812 26.8473 28.0192 27.1094 27.6953 27.1094ZM29.4531 28.8672C29.4531 28.5433 29.7152 28.2812 30.0391 28.2812H31.2109C31.5348 28.2812 31.7969 28.5433 31.7969 28.8672C31.7969 29.1911 31.5348 29.4531 31.2109 29.4531H30.0391C29.7152 29.4531 29.4531 29.1911 29.4531 28.8672Z" fill="#9875E9"/>
</g>
<defs>
<clipPath id="clip0_336_6080">
<rect width="20" height="20" fill="white" transform="translate(20 20)"/>
</clipPath>
</defs>
</svg>
