<svg width="92" height="105" viewBox="0 0 92 105" fill="none" xmlns="http://www.w3.org/2000/svg">
<g filter="url(#filter0_d_183_8701)">
<path d="M49.5 26H28.5C21.8726 26 16.5 31.3726 16.5 38V59C16.5 65.6274 21.8726 71 28.5 71H49.5C56.1274 71 61.5 65.6274 61.5 59V38C61.5 31.3726 56.1274 26 49.5 26Z" fill="#E9612F"/>
</g>
<path fill-rule="evenodd" clip-rule="evenodd" d="M33.7931 43.293C33.9806 43.1055 34.2349 43.0002 34.5001 43.0002C34.7652 43.0002 35.0196 43.1055 35.2071 43.293L39.5001 47.586L43.7931 43.293C43.8853 43.1975 43.9957 43.1213 44.1177 43.0689C44.2397 43.0165 44.3709 42.9889 44.5037 42.9878C44.6365 42.9866 44.7681 43.0119 44.891 43.0622C45.0139 43.1125 45.1256 43.1867 45.2195 43.2806C45.3134 43.3745 45.3876 43.4862 45.4379 43.6091C45.4882 43.732 45.5135 43.8636 45.5123 43.9964C45.5112 44.1292 45.4836 44.2604 45.4312 44.3824C45.3788 44.5044 45.3026 44.6148 45.2071 44.707L40.9141 49L45.2071 53.293C45.3026 53.3853 45.3788 53.4956 45.4312 53.6176C45.4836 53.7396 45.5112 53.8708 45.5123 54.0036C45.5135 54.1364 45.4882 54.2681 45.4379 54.391C45.3876 54.5139 45.3134 54.6255 45.2195 54.7194C45.1256 54.8133 45.0139 54.8876 44.891 54.9378C44.7681 54.9881 44.6365 55.0134 44.5037 55.0123C44.3709 55.0111 44.2397 54.9835 44.1177 54.9311C43.9957 54.8787 43.8853 54.8025 43.7931 54.707L39.5001 50.414L35.2071 54.707C35.1148 54.8025 35.0045 54.8787 34.8825 54.9311C34.7605 54.9835 34.6293 55.0111 34.4965 55.0123C34.3637 55.0134 34.232 54.9881 34.1091 54.9378C33.9862 54.8876 33.8746 54.8133 33.7807 54.7194C33.6868 54.6255 33.6125 54.5139 33.5623 54.391C33.512 54.2681 33.4867 54.1364 33.4878 54.0036C33.489 53.8708 33.5166 53.7396 33.569 53.6176C33.6214 53.4956 33.6976 53.3853 33.7931 53.293L38.0861 49L33.7931 44.707C33.6056 44.5195 33.5003 44.2652 33.5003 44C33.5003 43.7349 33.6056 43.4805 33.7931 43.293Z" fill="#FAFAFA"/>
<defs>
<filter id="filter0_d_183_8701" x="-13.5" y="0" width="105" height="105" filterUnits="userSpaceOnUse" color-interpolation-filters="sRGB">
<feFlood flood-opacity="0" result="BackgroundImageFix"/>
<feColorMatrix in="SourceAlpha" type="matrix" values="0 0 0 0 0 0 0 0 0 0 0 0 0 0 0 0 0 0 127 0" result="hardAlpha"/>
<feOffset dy="4"/>
<feGaussianBlur stdDeviation="15"/>
<feColorMatrix type="matrix" values="0 0 0 0 0 0 0 0 0 0 0 0 0 0 0 0 0 0 0.102 0"/>
<feBlend mode="normal" in2="BackgroundImageFix" result="effect1_dropShadow_183_8701"/>
<feBlend mode="normal" in="SourceGraphic" in2="effect1_dropShadow_183_8701" result="shape"/>
</filter>
</defs>
</svg>
