<svg width="25" height="25" viewBox="0 0 25 25" fill="none" xmlns="http://www.w3.org/2000/svg">
<rect width="24" height="24" transform="translate(0.5 0.367188)" fill="white"/>
<path d="M12.5 23.0547C15.3335 23.0515 18.0501 21.9245 20.0536 19.9209C22.0572 17.9173 23.1843 15.2008 23.1875 12.3672C22.6004 -1.81118 2.39746 -1.80705 1.8125 12.3673C1.81574 15.2008 2.94279 17.9173 4.94638 19.9209C6.94998 21.9245 9.6665 23.0515 12.5 23.0547ZM12.5 2.80474C15.0352 2.80763 17.4658 3.81603 19.2585 5.60872C21.0512 7.40141 22.0596 9.83199 22.0625 12.3672C21.5371 25.0532 3.46094 25.0495 2.9375 12.3672C2.94041 9.83194 3.94883 7.40138 5.74151 5.6087C7.5342 3.81603 9.96477 2.80763 12.5 2.80474Z" fill="#E9612F"/>
<circle cx="12.4995" cy="12.3672" r="10.688" fill="#E9612F"/>
<path d="M7.72716 17.7026C7.79652 17.7025 7.86529 17.6897 7.93003 17.6649L14.8155 15.0047C14.8886 14.9764 14.955 14.9331 15.0104 14.8777C15.0658 14.8222 15.1091 14.7559 15.1374 14.6828L17.7976 7.7973C17.8351 7.69572 17.8426 7.58554 17.8194 7.4798C17.7962 7.37405 17.7432 7.27717 17.6666 7.20062C17.5901 7.12407 17.4932 7.07105 17.3874 7.04784C17.2817 7.02463 17.1715 7.0322 17.0699 7.06966L10.1844 9.7298C10.1114 9.75814 10.045 9.8014 9.98957 9.85683C9.93414 9.91225 9.89088 9.97862 9.86254 10.0517L7.20238 16.9372C7.17052 17.0225 7.15965 17.1141 7.1707 17.2045C7.18174 17.2948 7.21438 17.3812 7.26586 17.4563C7.31733 17.5313 7.38612 17.5929 7.46641 17.6358C7.54671 17.6787 7.63614 17.7016 7.72716 17.7026ZM10.8224 10.6896L16.2902 8.57697L14.1776 14.0449L8.70972 16.1575L10.8224 10.6896Z" fill="white"/>
<path d="M12.4999 11.8047C12.3521 11.8068 12.2111 11.867 12.1073 11.9722C12.0035 12.0775 11.9453 12.2194 11.9453 12.3672C11.9453 12.515 12.0035 12.6569 12.1073 12.7622C12.2111 12.8674 12.3521 12.9276 12.4999 12.9297C12.6477 12.9276 12.7888 12.8674 12.8926 12.7621C12.9963 12.6569 13.0545 12.515 13.0545 12.3672C13.0545 12.2194 12.9963 12.0775 12.8925 11.9722C12.7888 11.867 12.6477 11.8068 12.4999 11.8047Z" fill="white"/>
</svg>
