<svg width="24" height="24" viewBox="0 0 24 24" fill="none" xmlns="http://www.w3.org/2000/svg">
<path d="M12 22.6875C14.8335 22.6843 17.5501 21.5572 19.5536 19.5536C21.5572 17.5501 22.6843 14.8335 22.6875 12C22.1004 -2.17842 1.89746 -2.17429 1.3125 12.0001C1.31574 14.8336 2.44279 17.5501 4.44638 19.5537C6.44998 21.5573 9.1665 22.6843 12 22.6875ZM12 2.4375C14.5352 2.44039 16.9658 3.44879 18.7585 5.24148C20.5512 7.03417 21.5596 9.46475 21.5625 12C21.0371 24.6859 2.96094 24.6822 2.4375 11.9999C2.44041 9.46469 3.44883 7.03414 5.24151 5.24146C7.0342 3.44879 9.46477 2.44039 12 2.4375Z" fill="#969494"/>
<path d="M7.22718 17.3353C7.29654 17.3353 7.3653 17.3225 7.43005 17.2976L14.3156 14.6374C14.3886 14.6091 14.455 14.5658 14.5104 14.5104C14.5658 14.455 14.6091 14.3886 14.6375 14.3155L17.2976 7.43005C17.3351 7.32848 17.3426 7.21829 17.3194 7.11255C17.2962 7.0068 17.2432 6.90992 17.1666 6.83337C17.0901 6.75682 16.9932 6.7038 16.8875 6.68059C16.7817 6.65738 16.6715 6.66496 16.5699 6.70241L9.68445 9.36255C9.61137 9.39089 9.54501 9.43415 9.48958 9.48958C9.43416 9.545 9.39089 9.61137 9.36255 9.68445L6.7024 16.5699C6.67053 16.6552 6.65966 16.7469 6.67071 16.8372C6.68176 16.9276 6.7144 17.0139 6.76587 17.089C6.81734 17.1641 6.88613 17.2257 6.96643 17.2685C7.04672 17.3114 7.13616 17.3343 7.22718 17.3353ZM10.3224 10.3224L15.7903 8.20972L13.6776 13.6776L8.20974 15.7903L10.3224 10.3224Z" fill="#969494"/>
<path d="M12 11.4375C11.8522 11.4396 11.7112 11.4998 11.6074 11.605C11.5036 11.7103 11.4454 11.8522 11.4454 12C11.4454 12.1478 11.5036 12.2897 11.6074 12.395C11.7112 12.5002 11.8522 12.5604 12 12.5625C12.1478 12.5604 12.2889 12.5002 12.3927 12.395C12.4964 12.2897 12.5546 12.1478 12.5546 12C12.5546 11.8522 12.4964 11.7103 12.3926 11.605C12.2889 11.4998 12.1478 11.4396 12 11.4375Z" fill="#969494"/>
</svg>
