<svg width="25" height="24" viewBox="0 0 25 24" fill="none" xmlns="http://www.w3.org/2000/svg">
<path d="M5.83333 17.3443H5.16667C4.45942 17.3443 3.78115 17.0634 3.28105 16.5633C2.78095 16.0632 2.5 15.3849 2.5 14.6777V12.011C2.5 11.3037 2.78095 10.6255 3.28105 10.1254C3.78115 9.62527 4.45942 9.34432 5.16667 9.34432H5.83333C6.20133 9.34432 7.16667 9.64299 7.16667 10.011V16.6777C7.16667 17.0457 6.20133 17.3443 5.83333 17.3443Z" stroke="white" stroke-width="1.8" stroke-linecap="round" stroke-linejoin="round"/>
<path d="M19.8334 17.3443H19.1667C18.7987 17.3443 17.8334 17.0457 17.8334 16.6777V10.011C17.8334 9.64299 18.7987 9.34432 19.1667 9.34432H19.8334C20.5406 9.34432 21.2189 9.62527 21.719 10.1254C22.2191 10.6255 22.5 11.3037 22.5 12.011V14.6777C22.5 15.3849 22.2191 16.0632 21.719 16.5633C21.2189 17.0634 20.5406 17.3443 19.8334 17.3443V17.3443Z" stroke="white" stroke-width="1.8" stroke-linecap="round" stroke-linejoin="round"/>
<path d="M5.16663 9.34432C5.16663 7.3994 5.93924 5.53414 7.31451 4.15887C8.68978 2.7836 10.555 2.01099 12.5 2.01099V2.01099C14.4449 2.01099 16.3101 2.7836 17.6854 4.15887C19.0607 5.53414 19.8333 7.3994 19.8333 9.34432" stroke="white" stroke-width="1.8" stroke-linecap="round" stroke-linejoin="round"/>
<path d="M15.1666 20.6777H17.1666C17.8739 20.6777 18.5521 20.3967 19.0522 19.8966C19.5523 19.3965 19.8333 18.7182 19.8333 18.011V18.011V17.3443" stroke="white" stroke-width="1.8" stroke-linecap="round" stroke-linejoin="round"/>
<path d="M13.8334 22.011H11.1667C10.8131 22.011 10.4739 21.8705 10.2239 21.6205C9.97385 21.3704 9.83337 21.0313 9.83337 20.6777V20.6777C9.83337 20.324 9.97385 19.9849 10.2239 19.7348C10.4739 19.4848 10.8131 19.3443 11.1667 19.3443H13.8334C14.187 19.3443 14.5261 19.4848 14.7762 19.7348C15.0262 19.9849 15.1667 20.324 15.1667 20.6777V20.6777C15.1667 21.0313 15.0262 21.3704 14.7762 21.6205C14.5261 21.8705 14.187 22.011 13.8334 22.011V22.011Z" stroke="white" stroke-width="1.8" stroke-linecap="round" stroke-linejoin="round"/>
</svg>
