<svg width="40" height="40" viewBox="0 0 40 40" fill="none" xmlns="http://www.w3.org/2000/svg">
<rect width="40" height="40" rx="8" fill="#EAE3F9"/>
<g clip-path="url(#clip0_166_109710)">
<path d="M31.581 15.3725L29.5964 13.3879L31.0882 11.8966C31.2202 11.7648 31.2943 11.5862 31.2943 11.3995C31.2943 11.2127 31.2202 11.0342 31.0883 10.9024L29.0909 8.90494C28.8272 8.64126 28.3603 8.64126 28.0966 8.90494L26.6053 10.3968L24.6204 8.41186C24.0712 7.86271 23.1808 7.86271 22.6317 8.41186C22.0824 8.961 22.0824 9.85139 22.6317 10.4006L29.5922 17.3612C30.1414 17.9103 31.0318 17.9103 31.581 17.3612C32.1301 16.8121 32.1301 15.9217 31.581 15.3725Z" fill="#6F46CD"/>
<path d="M17.3685 29.599L10.408 22.6384C9.85871 22.0893 8.96842 22.0893 8.41918 22.6384C7.87004 23.1877 7.87004 24.078 8.41918 24.6272L10.4041 26.6121L8.91512 28.1005C8.78326 28.2324 8.7091 28.4109 8.7091 28.5976C8.7091 28.7844 8.78326 28.9629 8.91512 29.0947L10.9126 31.0915C11.0499 31.2289 11.2298 31.2976 11.4097 31.2976C11.5896 31.2976 11.7695 31.2289 11.9068 31.0915L13.3952 29.6032L15.3798 31.5878C15.9289 32.137 16.8193 32.137 17.3685 31.5878C17.9177 31.0386 17.9177 30.1482 17.3685 29.599Z" fill="#6F46CD"/>
<path d="M20.6428 16.3672L16.374 20.6504L19.3572 23.6336L23.6259 19.3502L20.6428 16.3672Z" fill="#6F46CD"/>
<path d="M29.5922 19.3495L20.6428 10.4001C20.0937 9.851 19.2033 9.851 18.6541 10.4001C18.1049 10.9494 18.1049 11.8397 18.6541 12.3889L27.6035 21.3383C28.1526 21.8874 29.043 21.8874 29.5922 21.3383C30.1414 20.7891 30.1414 19.8987 29.5922 19.3495Z" fill="#6F46CD"/>
<path d="M21.3461 27.6103L12.3967 18.6609C11.8476 18.1117 10.9572 18.1117 10.408 18.6609C9.85878 19.2101 9.85878 20.1005 10.408 20.6496L19.3574 29.599C19.9065 30.1481 20.7969 30.1481 21.3461 29.599C21.8953 29.0499 21.8953 28.1595 21.3461 27.6103Z" fill="#6F46CD"/>
</g>
<defs>
<clipPath id="clip0_166_109710">
<rect width="24" height="24" fill="white" transform="translate(8 8)"/>
</clipPath>
</defs>
</svg>
