<svg width="24" height="25" viewBox="0 0 24 25" fill="none" xmlns="http://www.w3.org/2000/svg">
<path d="M23.3529 10.7096C23.3524 10.709 23.3518 10.7085 23.3513 10.7079L13.5612 0.918205C13.1439 0.500725 12.5891 0.270744 11.9989 0.270744C11.4088 0.270744 10.854 0.500542 10.4365 0.918022L0.651499 10.7028C0.648203 10.7061 0.644907 10.7096 0.641611 10.7129C-0.215323 11.5748 -0.213858 12.9731 0.645822 13.8328C1.03858 14.2258 1.55732 14.4534 2.11195 14.4772C2.13447 14.4794 2.15717 14.4805 2.18006 14.4805H2.57026V21.6851C2.57026 23.1108 3.73023 24.2707 5.15626 24.2707H8.98646C9.37464 24.2707 9.68958 23.956 9.68958 23.5676V17.9192C9.68958 17.2686 10.2188 16.7394 10.8693 16.7394H13.1285C13.7791 16.7394 14.3082 17.2686 14.3082 17.9192V23.5676C14.3082 23.956 14.623 24.2707 15.0114 24.2707H18.8416C20.2676 24.2707 21.4276 23.1108 21.4276 21.6851V14.4805H21.7894C22.3793 14.4805 22.9342 14.2507 23.3518 13.8332C24.2124 12.972 24.2128 11.5713 23.3529 10.7096Z" fill="#E9612F"/>
</svg>
