<svg width="24" height="25" viewBox="0 0 24 25" fill="none" xmlns="http://www.w3.org/2000/svg">
<g clip-path="url(#clip0_180_17396)">
<g clip-path="url(#clip1_180_17396)">
<path d="M23.4 11.3212C23.3992 11.3206 23.3987 11.3199 23.3981 11.3194L13.608 1.5296C13.1907 1.11212 12.6359 0.882324 12.0458 0.882324C11.4556 0.882324 10.9008 1.11212 10.4833 1.5296L0.698329 11.3144C0.695033 11.3177 0.691554 11.3212 0.688441 11.3245C-0.168494 12.1864 -0.167029 13.5847 0.692653 14.4444C1.08541 14.8374 1.60397 15.0648 2.1586 15.0888C2.1813 15.091 2.20401 15.0921 2.2269 15.0921H2.61691V22.2966C2.61691 23.7224 3.77707 24.8824 5.20292 24.8824H9.03312C9.42149 24.8824 9.73625 24.5674 9.73625 24.1792V18.5308C9.73625 17.8802 10.2656 17.351 10.9162 17.351H13.1753C13.8259 17.351 14.3551 17.8802 14.3551 18.5308V24.1792C14.3551 24.5674 14.6699 24.8824 15.0582 24.8824H18.8884C20.3145 24.8824 21.4744 23.7224 21.4744 22.2966V15.0921H21.8362C22.4262 15.0921 22.981 14.8623 23.3987 14.4446C24.2593 13.5836 24.2597 12.1827 23.4 11.3212ZM22.4042 13.4503C22.2524 13.6021 22.0507 13.6858 21.8362 13.6858H20.7713C20.3829 13.6858 20.0682 14.0006 20.0682 14.3889V22.2966C20.0682 22.9469 19.539 23.4761 18.8884 23.4761H15.7613V18.5308C15.7613 17.105 14.6014 15.9448 13.1753 15.9448H10.9162C9.49015 15.9448 8.33 17.105 8.33 18.5308V23.4761H5.20292C4.55252 23.4761 4.02316 22.9469 4.02316 22.2966V14.3889C4.02316 14.0006 3.70841 13.6858 3.32004 13.6858H2.27341C2.26242 13.6851 2.25162 13.6845 2.24045 13.6844C2.03097 13.6807 1.8345 13.5976 1.68728 13.4502C1.37417 13.137 1.37417 12.6275 1.68728 12.3142C1.68747 12.3142 1.68747 12.314 1.68765 12.3138L1.6882 12.3133L11.478 2.52387C11.6296 2.37207 11.8312 2.28858 12.0458 2.28858C12.2602 2.28858 12.4618 2.37207 12.6136 2.52387L22.4011 12.3112C22.4026 12.3127 22.4042 12.3142 22.4057 12.3156C22.7172 12.6293 22.7166 13.1378 22.4042 13.4503Z" fill="#969494"/>
</g>
</g>
<defs>
<clipPath id="clip0_180_17396">
<rect width="24" height="24" fill="white" transform="translate(0 0.929199)"/>
</clipPath>
<clipPath id="clip1_180_17396">
<rect width="24" height="24" fill="white" transform="translate(0 0.929199)"/>
</clipPath>
</defs>
</svg>
