<svg width="20" height="21" viewBox="0 0 20 21" fill="none" xmlns="http://www.w3.org/2000/svg">
<path fill-rule="evenodd" clip-rule="evenodd" d="M8.6888 10.0122C8.6888 11.0352 7.8598 11.8642 6.8368 11.8642C5.8138 11.8642 4.9848 11.0352 4.9848 10.0122C4.9848 8.98916 5.8138 8.16016 6.8368 8.16016H6.8398C7.8618 8.16116 8.6888 8.99016 8.6888 10.0122Z" stroke="#212121" stroke-width="1.5" stroke-linecap="round" stroke-linejoin="round"/>
<path d="M8.6918 10.0122H15.0098V11.8642" stroke="#212121" stroke-width="1.5" stroke-linecap="round" stroke-linejoin="round"/>
<path d="M12.182 11.8642V10.0122" stroke="#212121" stroke-width="1.5" stroke-linecap="round" stroke-linejoin="round"/>
<path fill-rule="evenodd" clip-rule="evenodd" d="M0.749908 10.0122C0.749908 3.07521 3.06291 0.762207 9.99991 0.762207C16.9369 0.762207 19.2499 3.07521 19.2499 10.0122C19.2499 16.9492 16.9369 19.2622 9.99991 19.2622C3.06291 19.2622 0.749908 16.9492 0.749908 10.0122Z" stroke="#212121" stroke-width="1.5" stroke-linecap="round" stroke-linejoin="round"/>
</svg>
