<svg width="60" height="60" viewBox="0 0 60 60" fill="none" xmlns="http://www.w3.org/2000/svg">
<rect width="60" height="60" rx="30" fill="#F66371" fill-opacity="0.1"/>
<g clip-path="url(#clip0_336_6098)">
<path fill-rule="evenodd" clip-rule="evenodd" d="M35.7503 31.907H31.3697C31.7312 30.8223 31.9233 29.9093 31.9549 29.1309C32.0297 27.2945 31.1626 26.5676 30.422 26.2809C30.3911 26.2687 30.3588 26.26 30.3259 26.2551C29.7521 26.1644 29.5478 26.4344 29.4125 26.7395L29.3947 26.7795C29.3749 26.8233 29.3619 26.8699 29.3563 26.9177C29.1732 28.4843 28.5042 29.9542 27.4433 31.1214V39.8733C27.5616 39.9167 27.6825 39.9527 27.8053 39.9813C27.8385 39.9892 27.8725 39.9934 27.9066 39.9939C28.2733 39.9978 28.7105 39.9998 29.2146 39.9998C29.7175 39.9998 30.2869 39.9977 30.9188 39.9939H35.0457C35.287 39.9939 35.524 39.9298 35.7324 39.8082C35.9408 39.6866 36.1132 39.5118 36.2319 39.3018C36.3506 39.0917 36.4113 38.8538 36.4079 38.6125C36.4045 38.3713 36.3371 38.1352 36.2125 37.9286C36.4879 37.7199 36.6737 37.4143 36.7319 37.0737C36.7902 36.7331 36.7167 36.383 36.5263 36.0947C36.7936 35.868 36.9631 35.547 36.9996 35.1984C37.036 34.8498 36.9366 34.5007 36.722 34.2236C36.9102 34.0322 37.0376 33.7895 37.0883 33.5259C37.139 33.2623 37.1106 32.9896 37.0068 32.7421C36.903 32.4946 36.7283 32.2833 36.5048 32.1347C36.2812 31.9862 36.0187 31.907 35.7503 31.9072V31.907ZM26.5274 24.05C26.4997 23.9646 26.448 23.8888 26.3784 23.8319C26.3089 23.775 26.2245 23.7392 26.1352 23.7288L24.8555 23.5816L24.3204 22.4108C24.2832 22.3289 24.2232 22.2595 24.1476 22.2108C24.072 22.1621 23.9839 22.1362 23.894 22.1362C23.8041 22.1362 23.716 22.1621 23.6404 22.2108C23.5648 22.2595 23.5048 22.3289 23.4676 22.4108L22.9325 23.5816L21.6528 23.7288C21.5636 23.7391 21.4791 23.7748 21.4096 23.8317C21.34 23.8885 21.2882 23.9642 21.2605 24.0497C21.2327 24.1352 21.2301 24.2268 21.253 24.3137C21.2758 24.4006 21.3232 24.4791 21.3894 24.5399L22.3379 25.411L22.0825 26.6734C22.0649 26.7614 22.0729 26.8526 22.1055 26.9362C22.1382 27.0198 22.1941 27.0923 22.2667 27.1451C22.3394 27.1979 22.4256 27.2287 22.5152 27.234C22.6048 27.2392 22.6941 27.2186 22.7723 27.1747L23.8939 26.5414L25.0157 27.1747C25.0939 27.2188 25.1832 27.2396 25.2729 27.2344C25.3626 27.2293 25.449 27.1985 25.5216 27.1457C25.5943 27.0928 25.6503 27.0202 25.6829 26.9365C25.7155 26.8528 25.7233 26.7615 25.7055 26.6734L25.4501 25.411L26.3987 24.5399C26.4648 24.4792 26.5121 24.4007 26.5349 24.3139C26.5577 24.227 26.5551 24.1355 26.5274 24.0501L26.5274 24.05ZM38.7397 24.05C38.7674 24.1354 38.7701 24.227 38.7473 24.3138C38.7245 24.4007 38.6772 24.4791 38.611 24.5399L37.6624 25.411L37.9178 26.6734C37.9356 26.7614 37.9278 26.8527 37.8952 26.9365C37.8626 27.0202 37.8066 27.0928 37.7339 27.1456C37.6613 27.1984 37.5749 27.2292 37.4853 27.2344C37.3956 27.2395 37.3063 27.2188 37.228 27.1746L36.1065 26.5414L34.9848 27.1746C34.9066 27.2188 34.8173 27.2395 34.7276 27.2344C34.6379 27.2293 34.5516 27.1984 34.4789 27.1456C34.4062 27.0928 34.3502 27.0202 34.3176 26.9365C34.285 26.8527 34.2772 26.7614 34.295 26.6734L34.5504 25.411L33.6019 24.5399C33.5357 24.4791 33.4883 24.4006 33.4655 24.3137C33.4426 24.2268 33.4452 24.1352 33.473 24.0497C33.5007 23.9642 33.5525 23.8885 33.6221 23.8317C33.6916 23.7748 33.7761 23.7391 33.8653 23.7288L35.1446 23.5816L35.68 22.4108C35.7172 22.3289 35.7771 22.2595 35.8527 22.2108C35.9283 22.1621 36.0164 22.1362 36.1063 22.1362C36.1962 22.1362 36.2842 22.1621 36.3598 22.2108C36.4354 22.2595 36.4954 22.3289 36.5326 22.4108L37.068 23.5816L38.3473 23.7288C38.4366 23.7392 38.521 23.7749 38.5906 23.8319C38.6601 23.8888 38.7118 23.9645 38.7395 24.05H38.7397ZM33.1554 22.293C33.1276 22.2074 33.0759 22.1315 33.0064 22.0744C32.9369 22.0172 32.8525 21.9812 32.7631 21.9705L31.1157 21.7825L30.4264 20.273C30.3888 20.1916 30.3287 20.1227 30.2531 20.0743C30.1776 20.026 30.0898 20.0003 30.0001 20.0003C29.9104 20.0003 29.8226 20.026 29.747 20.0743C29.6715 20.1227 29.6113 20.1916 29.5737 20.273L28.8844 21.7824L27.237 21.9703C27.1478 21.9808 27.0635 22.0167 26.994 22.0736C26.9245 22.1306 26.8729 22.2063 26.8451 22.2917C26.8174 22.3771 26.8148 22.4687 26.8375 22.5556C26.8603 22.6425 26.9075 22.7211 26.9735 22.782L28.1949 23.9039L27.866 25.5289C27.8483 25.6169 27.8561 25.7082 27.8888 25.7919C27.9214 25.8756 27.9774 25.9482 28.05 26.001C28.1227 26.0537 28.209 26.0845 28.2987 26.0897C28.3884 26.0948 28.4776 26.0741 28.5558 26.03L30.0001 25.2153L31.4443 26.03C31.5225 26.0742 31.6118 26.0949 31.7014 26.0897C31.7911 26.0846 31.8774 26.0538 31.9501 26.001C32.0227 25.9482 32.0787 25.8757 32.1113 25.792C32.1439 25.7083 32.1518 25.617 32.134 25.529L31.8053 23.904L33.0266 22.782C33.0927 22.7214 33.14 22.643 33.1629 22.5563C33.1857 22.4696 33.1832 22.3782 33.1555 22.2928L33.1554 22.293ZM26.5058 31.9918C26.4232 31.8606 26.3087 31.7524 26.173 31.6774C26.0373 31.6024 25.8848 31.563 25.7298 31.5629H22.4943C22.2511 31.5631 22.0179 31.6598 21.8459 31.8318C21.6739 32.0038 21.5771 32.2369 21.5768 32.4802V39.082C21.577 39.3253 21.6737 39.5586 21.8457 39.7307C22.0178 39.9028 22.251 39.9997 22.4943 40H25.7298C25.8848 39.9999 26.0373 39.9606 26.173 39.8856C26.3086 39.8107 26.4231 39.7026 26.5058 39.5714V31.9918ZM22.7624 33.2848C22.7624 33.1604 22.8118 33.0412 22.8997 32.9533C22.9876 32.8654 23.1068 32.816 23.2312 32.816H23.5752C23.6995 32.816 23.8187 32.8654 23.9066 32.9533C23.9945 33.0412 24.0439 33.1604 24.0439 33.2848C24.0439 33.4091 23.9945 33.5283 23.9066 33.6162C23.8187 33.7041 23.6995 33.7535 23.5752 33.7535H23.2312C23.1696 33.7535 23.1087 33.7414 23.0518 33.7178C22.9949 33.6943 22.9432 33.6598 22.8997 33.6162C22.8562 33.5727 22.8217 33.521 22.7981 33.4642C22.7745 33.4073 22.7624 33.3463 22.7624 33.2848Z" fill="#F66371"/>
</g>
<defs>
<clipPath id="clip0_336_6098">
<rect width="20" height="20" fill="white" transform="translate(20 20)"/>
</clipPath>
</defs>
</svg>
