<svg width="22" height="23" viewBox="0 0 22 23" fill="none" xmlns="http://www.w3.org/2000/svg">
<path d="M11 0.367188C4.9346 0.367188 0 5.30179 0 11.3672C0 17.4326 4.9346 22.3672 11 22.3672C17.0654 22.3672 22 17.4326 22 11.3672C22 5.30179 17.0654 0.367188 11 0.367188ZM5.66667 13.0339C4.74767 13.0339 4 12.2862 4 11.3672C4 10.4482 4.74767 9.70052 5.66667 9.70052C6.58567 9.70052 7.33333 10.4482 7.33333 11.3672C7.33333 12.2862 6.58567 13.0339 5.66667 13.0339ZM11 13.0339C10.081 13.0339 9.33333 12.2862 9.33333 11.3672C9.33333 10.4482 10.081 9.70052 11 9.70052C11.919 9.70052 12.6667 10.4482 12.6667 11.3672C12.6667 12.2862 11.919 13.0339 11 13.0339ZM16.3333 13.0339C15.4143 13.0339 14.6667 12.2862 14.6667 11.3672C14.6667 10.4482 15.4143 9.70052 16.3333 9.70052C17.2523 9.70052 18 10.4482 18 11.3672C18 12.2862 17.2523 13.0339 16.3333 13.0339Z" fill="#E9612F"/>
</svg>
