<svg width="40" height="40" viewBox="0 0 40 40" fill="none" xmlns="http://www.w3.org/2000/svg">
<rect width="40" height="40" rx="8" fill="#E7FAC3"/>
<path d="M27.2531 20.9132C27.1591 20.9132 27.0626 20.9266 26.9664 20.9531L26.422 21.103L25.7254 19.4062C25.4049 18.6254 24.4574 17.99 23.6133 17.99H16.3755C15.5314 17.99 14.5839 18.6254 14.2634 19.4062L13.568 21.1002L13.0339 20.9531C12.9376 20.9266 12.8411 20.9132 12.7471 20.9132C12.2322 20.9132 11.8584 21.3065 11.8584 21.8484V21.8684C11.8584 22.4277 12.2609 22.8942 12.7912 22.9949C12.5016 23.7254 12.2687 24.9189 12.2687 25.6872V29.2112C12.2687 29.8439 12.7835 30.3587 13.4162 30.3587H14.0773C14.7099 30.3587 15.2248 29.8439 15.2248 29.2112V28.4756H24.7642V29.2112C24.7642 29.8439 25.2791 30.3587 25.9117 30.3587H26.5728C27.2055 30.3587 27.7203 29.8439 27.7203 29.2112V25.6872C27.7203 24.9193 27.4877 23.7269 27.1984 22.9966C27.734 22.8998 28.1418 22.4313 28.1418 21.8683V21.8483C28.1418 21.3065 27.768 20.9132 27.2531 20.9132ZM14.3058 22.2783L15.4121 19.5829C15.6038 19.1157 16.1738 18.7336 16.6786 18.7336H23.3102C23.815 18.7336 24.385 19.1157 24.5767 19.5829L25.6833 22.2783C25.875 22.7454 25.6187 23.1275 25.1139 23.1275H14.8751C14.3703 23.1275 14.114 22.7453 14.3058 22.2783ZM17.0793 26.3251C17.0793 26.5775 16.8727 26.7841 16.6203 26.7841H14.4162C14.1638 26.7841 13.9572 26.5775 13.9572 26.3251V25.3871C13.9572 25.1347 14.1638 24.9281 14.4162 24.9281H16.6204C16.8728 24.9281 17.0794 25.1347 17.0794 25.3871L17.0793 26.3251ZM26.0087 26.3251C26.0087 26.5775 25.8022 26.7841 25.5498 26.7841H23.3456C23.0931 26.7841 22.8866 26.5775 22.8866 26.3251V25.3871C22.8866 25.1347 23.0931 24.9281 23.3456 24.9281H25.5498C25.8022 24.9281 26.0087 25.1347 26.0087 25.3871V26.3251Z" fill="#7DB905"/>
<path d="M29.8485 9.26831H10.1515C8.96521 9.26831 8 10.2334 8 11.4198V29.5363C8 30.1964 8.5352 30.7316 9.19528 30.7316C9.85536 30.7316 10.3906 30.1964 10.3906 29.5363V16.8756H29.6094V29.5364C29.6094 30.1964 30.1446 30.7316 30.8047 30.7316C31.4648 30.7316 32 30.1964 32 29.5364V11.4198C32 10.2335 31.0349 9.26831 29.8485 9.26831ZM10.3906 14.1277H29.6094V14.5455H10.3906V14.1277ZM10.3906 13.1715V12.8362H29.6094V13.1715H10.3906ZM10.3906 15.9194V15.5017H29.6094V15.9194H10.3906Z" fill="#7DB905"/>
</svg>
