<svg width="24" height="25" viewBox="0 0 24 25" fill="none" xmlns="http://www.w3.org/2000/svg">
<path fill-rule="evenodd" clip-rule="evenodd" d="M11.8445 22.0793C8.15273 22.0793 5 21.5048 5 19.204C5 16.9032 8.13273 14.7793 11.8445 14.7793C15.5364 14.7793 18.6891 16.8827 18.6891 19.1834C18.6891 21.4833 15.5564 22.0793 11.8445 22.0793Z" stroke="#212121" stroke-width="1.5" stroke-linecap="round" stroke-linejoin="round"/>
<path fill-rule="evenodd" clip-rule="evenodd" d="M11.8373 11.591C14.26 11.591 16.2237 9.62738 16.2237 7.20466C16.2237 4.78193 14.26 2.81738 11.8373 2.81738C9.41458 2.81738 7.45004 4.78193 7.45004 7.20466C7.44186 9.6192 9.39186 11.5828 11.8064 11.591C11.8173 11.591 11.8273 11.591 11.8373 11.591Z" stroke="#212121" stroke-width="1.5" stroke-linecap="round" stroke-linejoin="round"/>
</svg>
