<svg width="60" height="60" viewBox="0 0 60 60" fill="none" xmlns="http://www.w3.org/2000/svg">
<rect width="60" height="60" rx="30" fill="#83C009" fill-opacity="0.1"/>
<g clip-path="url(#clip0_336_6066)">
<path d="M33.3145 29.1714L34.5225 27.9633C36.0004 28.4899 37.6742 28.1262 38.8007 26.9997C39.8728 25.9276 40.226 24.4049 39.8605 23.0357C39.7446 22.6014 39.1987 22.4585 38.8809 22.7764L37.0054 24.6519L35.3481 22.9946L37.2236 21.119C37.5415 20.8012 37.3986 20.2553 36.9643 20.1394C35.5951 19.774 34.0724 20.1271 33.0003 21.1992C31.8737 22.3258 31.5101 23.9995 32.0366 25.4774L30.8286 26.6855L33.3145 29.1714Z" fill="#83C009"/>
<path d="M26.6854 30.8286L25.4774 32.0367C23.9994 31.5101 22.3257 31.8738 21.1992 33.0003C20.1271 34.0724 19.7739 35.5952 20.1394 36.9644C20.2553 37.3987 20.8012 37.5416 21.119 37.2237L22.9946 35.3481L24.6519 37.0054L22.7763 38.8809C22.4584 39.1988 22.6013 39.7447 23.0357 39.8606C24.4049 40.226 25.9276 39.8729 26.9997 38.8008C28.1262 37.6742 28.4899 36.0005 27.9633 34.5226L29.1714 33.3145L26.6854 30.8286Z" fill="#83C009"/>
<path d="M38.8006 33.0001C37.6741 31.8736 36.0003 31.51 34.5224 32.0365L27.9634 25.4774C28.4899 23.9994 28.1262 22.3257 26.9997 21.1992C25.9276 20.1271 24.4048 19.7739 23.0356 20.1394C22.6013 20.2553 22.4584 20.8012 22.7763 21.119L24.6519 22.9946L22.9946 24.6519L21.119 22.7763C20.8011 22.4585 20.2553 22.6013 20.1394 23.0357C19.7739 24.4049 20.1271 25.9276 21.1992 26.9997C22.3257 28.1262 23.9995 28.4899 25.4774 27.9633L32.0364 34.5223C31.5099 36.0003 31.8736 37.6741 33.0001 38.8005C34.5993 40.3998 37.2014 40.3998 38.8005 38.8005C40.3997 37.2013 40.3998 34.5993 38.8006 33.0001ZM37.0703 36.3838L36.3838 37.0703H35.413L34.7266 36.3838V35.413L35.413 34.7266H36.3839L37.0703 35.413V36.3838Z" fill="#83C009"/>
</g>
<defs>
<clipPath id="clip0_336_6066">
<rect width="20" height="20" fill="white" transform="translate(20 20)"/>
</clipPath>
</defs>
</svg>
