<svg width="12" height="13" viewBox="0 0 12 13" fill="none" xmlns="http://www.w3.org/2000/svg">
<path d="M8.64501 2.4875L8.61001 4.3825C8.60501 4.6425 8.77001 4.9875 8.98001 5.1425L10.22 6.0825C11.015 6.6825 10.885 7.4175 9.93501 7.7175L8.32001 8.2225C8.05001 8.3075 7.76501 8.6025 7.69501 8.8775L7.31001 10.3475C7.00501 11.5075 6.24501 11.6225 5.61501 10.6025L4.73501 9.1775C4.57501 8.9175 4.19501 8.7225 3.89501 8.7375L2.22501 8.8225C1.03001 8.8825 0.690013 8.1925 1.47001 7.2825L2.46001 6.1325C2.64501 5.9175 2.73001 5.5175 2.64501 5.2475L2.13501 3.6275C1.84001 2.6775 2.37001 2.1525 3.31501 2.4625L4.79001 2.9475C5.04001 3.0275 5.41501 2.9725 5.62501 2.8175L7.16501 1.7075C8.00001 1.1125 8.66501 1.4625 8.64501 2.4875Z" fill="#F2B004"/>
</svg>
