<svg width="24" height="24" viewBox="0 0 24 24" fill="none" xmlns="http://www.w3.org/2000/svg">
<g clip-path="url(#clip0_166_109732)">
<path d="M10.3303 17.3496C9.40844 18.2716 9.40844 19.7672 10.3303 20.6892C11.2527 21.6111 12.7481 21.6111 13.6704 20.6892C14.5923 19.7672 14.5923 18.2716 13.6704 17.3496C12.7481 16.4275 11.2527 16.4275 10.3303 17.3496Z" fill="#EA4756"/>
<path d="M12.0004 11.7335C10.0548 11.7335 8.22437 12.4913 6.84935 13.8677C6.30917 14.4076 6.30917 15.2828 6.84935 15.8224C7.38909 16.3623 8.26384 16.3623 8.80402 15.8224C9.6569 14.9683 10.7924 14.4981 12.0004 14.4981C13.2083 14.4981 14.3439 14.9683 15.1968 15.8224C15.4671 16.0923 15.8217 16.2273 16.1744 16.2273C16.5289 16.2273 16.8816 16.0923 17.1515 15.8224C17.6917 15.2828 17.6917 14.4077 17.1515 13.8677C15.7764 12.4913 13.946 11.7335 12.0004 11.7335Z" fill="#EA4756"/>
<path d="M12.0004 7.18182C8.8383 7.18182 5.86563 8.41331 3.63015 10.6491C3.09041 11.189 3.09041 12.0643 3.63015 12.6038C4.17028 13.1437 5.04552 13.1437 5.58477 12.6038C7.29811 10.8899 9.5769 9.94626 12.0003 9.94626C14.4228 9.94626 16.7016 10.8899 18.415 12.6038C18.6848 12.8738 19.0394 13.0088 19.3921 13.0088C19.7467 13.0088 20.0998 12.8738 20.3697 12.6038C20.9094 12.0643 20.9094 11.189 20.3697 10.6491C18.1342 8.41331 15.1625 7.18182 12.0004 7.18182Z" fill="#EA4756"/>
<path d="M23.5961 7.4238C20.4992 4.32587 16.3814 2.62012 12.0004 2.62012C7.61945 2.62012 3.50167 4.32587 0.404807 7.4238C-0.134936 7.96379 -0.134936 8.83902 0.404807 9.37852C0.675116 9.64849 1.02874 9.78338 1.38236 9.78338C1.73599 9.78338 2.09058 9.64849 2.35948 9.37852C4.93425 6.80283 8.35863 5.3846 12.0004 5.3846C15.6423 5.3846 19.0657 6.80283 21.6405 9.37852C22.1802 9.91846 23.0549 9.91798 23.5952 9.37901C24.1348 8.83902 24.1348 7.96379 23.5961 7.4238Z" fill="#EA4756"/>
</g>
<defs>
<clipPath id="clip0_166_109732">
<rect width="24" height="24" fill="white"/>
</clipPath>
</defs>
</svg>
